<svg width="2270" height="2270" viewBox="0 0 2270 2270" fill="none" xmlns="http://www.w3.org/2000/svg">
<path d="M0 442.43C0 198.082 198.082 0 442.43 0H1827.57C2071.92 0 2270 198.082 2270 442.43V1827.57C2270 2071.92 2071.92 2270 1827.57 2270H442.43C198.082 2270 0 2071.92 0 1827.57V442.43Z" fill="#0B2848"/>
<path d="M1264 734C1264 834.516 1037.46 916 758 916C478.544 916 252 834.516 252 734C252 633.484 478.544 552 758 552C1037.46 552 1264 633.484 1264 734Z" fill="#8CFFFF"/>
<path d="M250 1053.31L250 813C250 813 308.986 957.685 758 957.685C1207.01 957.685 1266 813 1266 813V1053.31C1266 1053.31 1207.01 1198 758 1198C308.986 1198 250 1053.31 250 1053.31Z" fill="#8CFFFF"/>
<path d="M250 1330.31L250 1090C250 1090 308.986 1234.69 758 1234.69C1207.01 1234.69 1266 1090 1266 1090V1330.31C1266 1330.31 1207.01 1475 758 1475C308.986 1475 250 1330.31 250 1330.31Z" fill="#8CFFFF"/>
<path d="M250 1607.69L250 1368C250 1368 308.986 1512.31 758 1512.31C1207.01 1512.31 1266 1368 1266 1368V1607.69C1266 1607.69 1207.01 1752 758 1752C308.986 1752 250 1607.69 250 1607.69Z" fill="#8CFFFF"/>
<path d="M1826 1056.5L1543.3 779V935.249H960V1056.5V1177.75H1543.3V1334L1826 1056.5Z" fill="#F1737E"/>
<path d="M2031 1560L1748.3 1283V1438.97H1165V1560V1681.03H1748.3V1837L2031 1560Z" fill="#F1737E"/>
</svg>
