<svg width="174" height="174" viewBox="0 0 174 174" fill="none" xmlns="http://www.w3.org/2000/svg">
<path fill-rule="evenodd" clip-rule="evenodd" d="M173.5 137.5C173.5 157.382 157.383 173.5 137.5 173.5H36.499C16.617 173.5 0.498993 157.382 0.498993 137.5V36.5C0.498993 16.618 16.617 0.5 36.499 0.5H137.5C157.383 0.5 173.5 16.618 173.5 36.5V137.5Z" fill="#0B2848"/>
<path fill-rule="evenodd" clip-rule="evenodd" d="M158.482 96.305C151.127 96.274 143.771 96.278 136.417 96.306C134.978 96.313 134.121 97.133 133.924 98.576C133.79 99.549 133.729 100.531 133.56 101.496C130.485 119.062 114.324 130.169 98.157 128.041C88.387 126.755 80.818 122.02 75.268 113.944C74.828 113.304 74.31 112.671 74.796 111.824C75.276 110.986 76.058 110.882 76.937 110.888C79.941 110.913 82.945 110.9 85.95 110.896C86.873 110.895 87.887 111.061 88.377 109.976C88.898 108.821 88.072 108.14 87.386 107.44C84.848 104.851 82.286 102.285 79.76 99.685C73.335 93.08 66.92 86.464 60.512 79.842C59.687 78.988 58.859 79.04 58.067 79.779C57.352 80.447 56.748 81.233 56.063 81.936C50.279 87.867 44.481 93.787 38.705 99.724C37.661 100.797 36.687 101.941 35.681 103.051C33.803 104.447 32.466 106.39 30.735 107.937C30.073 108.529 29.918 109.263 30.227 110.05C30.545 110.86 31.285 110.916 32.049 110.913C35.156 110.898 38.263 110.907 41.371 110.908C44.271 110.908 44.359 110.99 45.231 113.813C48.303 123.761 53.664 132.274 61.231 139.425C71.504 149.137 83.751 154.468 97.773 155.556C106.314 156.218 114.669 154.956 122.726 151.919C130.436 149.014 137.255 144.692 143.175 138.992C146.3 135.983 149.189 132.738 151.363 128.933C151.359 128.933 151.356 128.934 151.352 128.934C151.407 128.783 151.166 128.366 151.654 128.611C152.914 127.019 153.77 125.184 154.697 123.403C158.617 115.867 160.638 107.8 161.244 99.354C161.365 97.644 160.229 96.313 158.482 96.305Z" fill="#8CFFFF"/>
<path fill-rule="evenodd" clip-rule="evenodd" d="M143.775 63.878C143.457 63.069 142.718 63.01 141.955 63.013C138.951 63.028 135.948 63.019 132.944 63.018C129.644 63.018 129.631 62.957 128.668 59.823C125.258 48.737 118.962 39.514 110.123 32.11C100.728 24.242 89.877 19.688 77.605 18.54C69.724 17.803 62.032 18.582 54.499 20.903C45.6 23.646 37.78 28.301 31.053 34.716C27.839 37.781 24.861 41.091 22.636 44.992C22.639 44.992 22.643 44.991 22.647 44.992C22.593 45.141 22.831 45.552 22.348 45.318C21.086 46.908 20.23 48.744 19.303 50.525C15.384 58.063 13.364 66.129 12.757 74.573C12.633 76.286 13.77 77.614 15.519 77.622C22.874 77.653 30.229 77.649 37.584 77.62C39.022 77.614 39.879 76.794 40.076 75.35C40.209 74.378 40.273 73.396 40.442 72.431C43.507 54.945 59.558 43.76 75.844 45.889C85.614 47.167 93.18 51.916 98.731 59.987C99.171 60.627 99.689 61.26 99.205 62.105C98.724 62.946 97.94 63.045 97.063 63.038C94.059 63.014 91.054 63.027 88.05 63.031C87.125 63.032 86.114 62.868 85.624 63.954C85.102 65.11 85.929 65.791 86.614 66.491C89.26 69.192 91.929 71.869 94.565 74.58C100.881 81.074 107.187 87.579 113.488 94.089C114.312 94.941 115.144 94.893 115.933 94.147C116.719 93.402 117.397 92.544 118.155 91.767C123.865 85.91 129.591 80.065 135.295 74.201C136.339 73.127 137.311 71.985 138.316 70.874C140.199 69.482 141.528 67.532 143.262 65.99C143.929 65.397 144.085 64.664 143.775 63.878ZM23.74 44.4C23.832 44.3 23.924 44.199 24.021 44.108C23.924 44.199 23.833 44.3 23.74 44.4Z" fill="#F1737E"/>
</svg>
